<?xml version="1.0" standalone="no"?>
<!DOCTYPE svg PUBLIC "-//W3C//DTD SVG 20010904//EN"
 "http://www.w3.org/TR/2001/REC-SVG-20010904/DTD/svg10.dtd">
<svg version="1.0" xmlns="http://www.w3.org/2000/svg"
 width="700.000000pt" height="700.000000pt" viewBox="0 0 700.000000 700.000000"
 preserveAspectRatio="xMidYMid meet">
<metadata>
Created by potrace 1.14, written by Peter Selinger 2001-2017
</metadata>
<g transform="translate(0.000000,700.000000) scale(0.100000,-0.100000)"
fill="#000000" stroke="none">
<path d="M1825 4860 c-53 -12 -98 -41 -157 -102 -61 -63 -64 -67 -126 -193
-65 -131 -109 -294 -130 -474 -9 -83 -9 -433 0 -527 11 -103 38 -237 53 -252
7 -8 22 -11 38 -7 21 6 26 12 22 29 -2 11 -6 35 -9 51 -2 17 -7 41 -10 55 -38
160 -42 489 -10 720 8 52 42 198 61 255 67 210 199 371 311 380 97 8 212 -98
289 -265 22 -48 70 -188 79 -230 17 -84 35 -194 41 -250 3 -36 7 -74 8 -85 1
-11 3 -46 4 -78 l1 -58 38 3 c20 2 36 8 35 13 0 6 -4 60 -7 120 -7 130 -17
195 -51 355 -10 44 -61 193 -85 247 -30 66 -82 148 -125 197 -14 16 -25 30
-25 32 0 1 17 -2 38 -8 175 -48 331 -390 358 -783 12 -178 11 -175 55 -175
l29 0 1 173 c1 249 7 282 63 316 51 31 98 36 142 13 87 -44 92 -64 93 -369 l1
-133 35 0 36 0 -1 193 c-1 199 -10 269 -37 299 -15 17 -15 18 1 18 27 0 74
-38 92 -73 18 -34 22 -87 23 -319 l1 -158 36 0 35 0 -2 227 c-1 134 -6 238
-12 253 -19 45 -58 90 -100 118 -39 25 -50 27 -162 29 -151 3 -195 -8 -252
-63 -25 -23 -46 -37 -49 -30 -2 6 -15 47 -29 91 -44 135 -139 307 -202 366
-15 14 -50 38 -77 54 -46 27 -54 28 -190 30 -77 1 -154 -1 -171 -5z"/>
<path d="M3620 3750 l0 -1100 1095 0 1095 0 0 1100 0 1100 -1095 0 -1095 0 0
-1100z m486 217 c62 -32 85 -96 55 -155 -19 -37 -19 -38 1 -65 26 -36 28 -95
5 -131 -32 -48 -76 -59 -249 -64 l-158 -4 0 46 c0 35 4 48 18 53 29 11 32 24
32 135 0 103 -1 107 -22 110 -25 3 -34 33 -23 75 l6 26 152 -5 c112 -4 161 -9
183 -21z m438 12 c3 -2 21 -42 41 -89 20 -47 47 -109 61 -138 13 -29 24 -57
24 -62 0 -5 15 -20 33 -34 33 -25 43 -63 25 -92 -4 -6 -50 -11 -102 -13 l-96
-2 0 33 c0 19 7 44 16 56 12 18 13 26 4 37 -16 19 -109 20 -135 1 -17 -12 -17
-14 -2 -37 10 -13 17 -38 17 -56 l0 -33 -105 0 -105 0 0 46 c0 37 4 47 20 51
23 6 48 47 89 145 31 72 31 72 11 93 -20 21 -26 59 -14 90 6 15 20 16 111 12
57 -2 105 -6 107 -8z m583 -12 c62 -33 84 -100 55 -163 -13 -27 -12 -34 6 -67
24 -45 22 -85 -7 -125 -32 -46 -85 -59 -253 -61 l-148 -2 0 46 c0 34 4 47 18
52 29 11 32 24 32 135 0 103 -1 107 -22 110 -25 3 -34 33 -23 75 l6 25 152 -4
c118 -3 159 -8 184 -21z m434 5 c47 -18 59 -39 59 -103 l0 -59 -45 2 c-51 1
-60 9 -64 51 -1 9 -18 14 -50 16 -45 2 -52 -1 -72 -29 -26 -34 -33 -70 -24
-117 12 -63 104 -92 179 -55 28 13 30 12 64 -21 l36 -36 -25 -20 c-50 -40
-169 -55 -246 -31 -83 27 -136 110 -132 208 4 106 63 179 164 202 38 9 122 5
156 -8z"/>
<path d="M3935 3878 c-16 -48 -12 -53 45 -54 74 -2 98 17 64 50 -19 19 -103
22 -109 4z"/>
<path d="M3930 3690 l0 -40 54 0 c52 0 86 16 86 40 0 20 -47 40 -92 40 l-48 0
0 -40z"/>
<path d="M4458 3825 c-8 -18 -8 -28 1 -39 13 -16 50 -10 46 7 -16 63 -29 72
-47 32z"/>
<path d="M4955 3878 c-16 -48 -12 -53 43 -56 72 -4 100 18 66 52 -19 19 -103
22 -109 4z"/>
<path d="M4950 3690 l0 -40 51 0 c60 0 89 13 89 41 0 24 -36 39 -96 39 l-44 0
0 -40z"/>
<path d="M1733 4405 c-60 -26 -100 -78 -109 -143 -5 -39 -4 -42 23 -49 15 -4
102 -8 193 -8 156 0 167 1 203 24 69 42 117 142 83 171 -24 19 -349 24 -393 5z
m313 -78 c-27 -41 -62 -50 -196 -54 -152 -4 -161 -1 -129 33 35 38 48 41 202
43 l138 2 -15 -24z"/>
<path d="M2692 4166 c-52 -47 -69 -80 -52 -101 18 -22 25 -19 71 22 48 43 65
79 48 99 -17 20 -25 18 -67 -20z"/>
<path d="M1719 4040 c-79 -22 -162 -142 -131 -188 11 -16 260 -28 348 -17 89
11 149 70 161 160 4 30 1 36 -19 44 -27 10 -321 11 -359 1z m291 -74 c0 -7
-12 -23 -26 -37 -24 -23 -33 -24 -176 -28 -149 -3 -150 -3 -139 18 25 45 75
58 224 59 88 1 117 -2 117 -12z"/>
<path d="M2704 3991 c-34 -21 -74 -67 -74 -86 0 -7 7 -18 15 -25 23 -19 58 1
95 52 47 65 27 98 -36 59z"/>
<path d="M2030 3740 c-190 -23 -370 -158 -370 -280 0 -36 21 -91 50 -127 12
-16 20 -41 20 -64 l0 -39 -90 0 c-49 0 -92 0 -95 0 -3 0 -19 -6 -35 -15 -34
-17 -51 -45 -59 -95 -6 -31 -10 -35 -48 -43 -22 -4 -52 -19 -65 -32 -14 -13
-45 -33 -71 -44 -35 -15 -54 -33 -84 -78 -31 -47 -44 -59 -69 -61 -44 -4 -59
-36 -50 -109 5 -43 13 -65 33 -85 l27 -28 1014 0 1015 0 31 33 31 32 3 304 3
304 31 38 c26 32 32 49 34 98 3 50 -1 65 -25 103 -32 50 -105 108 -177 140
-113 49 -124 50 -569 53 -231 1 -449 -1 -485 -5z m276 -86 c119 -40 197 -93
230 -156 19 -37 12 -71 -26 -119 l-28 -36 -4 -307 c-3 -330 -2 -325 -55 -326
-21 0 -23 5 -23 58 0 69 -8 82 -51 91 -27 5 -42 19 -72 65 -30 44 -50 63 -85
78 -26 12 -57 31 -69 44 -12 14 -39 26 -63 30 -43 7 -46 10 -54 58 -11 65 -47
88 -156 100 -25 3 -45 5 -46 5 0 1 -1 17 -2 37 -2 49 -10 73 -38 110 -49 63
-40 110 31 176 34 32 135 84 180 94 119 25 253 25 331 -2z m658 5 c167 -48
279 -158 247 -241 -6 -16 -15 -29 -21 -29 -5 -1 -14 -3 -20 -4 -5 -1 -80 -3
-165 -4 l-155 -1 0 -35 0 -35 88 -1 c48 0 114 -2 147 -3 l60 -2 1 -280 c1
-155 -2 -287 -7 -295 -7 -11 -62 -14 -301 -14 l-293 0 2 125 c1 69 2 203 3
298 l0 172 90 0 90 0 0 35 0 35 -60 0 -60 0 6 49 c3 28 1 65 -5 84 -11 33
-113 147 -131 147 -6 0 -10 5 -10 11 0 15 438 5 494 -12z m-1054 -512 c30 -15
30 -20 0 -172 l-23 -115 -158 0 c-120 0 -159 3 -160 13 -1 14 -2 24 -24 130
-22 104 -22 127 0 143 24 18 331 18 365 1z m-429 -207 c9 -36 14 -69 12 -73
-3 -4 -19 -6 -36 -5 -32 4 -53 32 -71 94 -9 29 19 56 53 52 23 -3 28 -10 42
-68z m584 54 c34 -34 -14 -134 -64 -134 -15 0 -30 3 -33 6 -6 5 18 119 28 135
9 15 51 10 69 -7z m-738 -101 l13 -33 -50 0 c-55 0 -61 9 -34 48 22 32 54 25
71 -15z m879 5 l27 -33 -26 -3 c-15 -2 -40 -2 -56 0 -29 3 -29 3 -16 36 8 17
21 32 29 32 8 0 27 -15 42 -32z m-136 -118 c242 -2 262 -5 258 -33 -2 -15 -13
-23 -37 -28 -18 -4 -283 -8 -587 -8 l-554 -2 -12 26 c-6 14 -8 28 -4 33 17 17
180 19 936 12z"/>
<path d="M2184 3556 c-3 -8 -4 -25 -2 -38 2 -18 9 -23 33 -23 27 0 30 3 33 38
3 35 2 37 -28 37 -17 0 -33 -6 -36 -14z"/>
<path d="M1884 3436 c-12 -31 0 -51 31 -51 27 0 30 3 30 30 0 25 -4 30 -28 33
-17 2 -29 -2 -33 -12z"/>
<path d="M2224 3216 c-12 -31 0 -51 31 -51 27 0 30 3 30 30 0 25 -4 30 -28 33
-17 2 -29 -2 -33 -12z"/>
<path d="M1035 2290 c-3 -5 -1 -18 5 -29 13 -26 13 -84 -1 -98 -33 -33 61 -46
127 -18 30 12 34 18 29 36 -4 12 -7 40 -7 61 1 33 -3 41 -24 48 -33 13 -121
13 -129 0z m104 -34 c10 -11 8 -16 -8 -21 -25 -8 -41 1 -41 21 0 18 34 18 49
0z m6 -65 c6 -11 -12 -24 -37 -28 -18 -3 -25 17 -11 30 10 10 41 8 48 -2z"/>
<path d="M1305 2291 c-3 -6 -1 -20 5 -32 7 -12 10 -35 7 -53 -3 -17 -7 -40 -9
-51 -2 -16 3 -21 31 -23 34 -4 68 16 44 25 -14 5 -18 33 -5 33 4 0 16 -13 25
-30 20 -33 28 -35 58 -20 25 14 24 26 -2 33 -18 5 -19 9 -9 27 36 68 15 96
-74 99 -36 1 -67 -3 -71 -8z m113 -48 c5 -17 -26 -29 -40 -15 -6 6 -7 15 -3
22 9 14 37 9 43 -7z"/>
<path d="M1585 2215 l-1 -85 73 0 c71 0 73 1 73 25 0 27 -31 48 -38 27 -5 -15
-38 -16 -47 -2 -3 6 1 10 9 10 26 0 30 23 7 42 -26 21 -15 29 34 25 24 -2 30
2 30 18 0 18 -8 20 -70 23 l-70 3 0 -86z"/>
<path d="M1879 2298 c-1 -2 -2 -20 -3 -41 -2 -21 -13 -51 -25 -68 -29 -39 -21
-59 24 -59 31 0 35 3 35 25 0 34 47 37 52 3 4 -29 64 -39 75 -13 3 10 1 20 -5
24 -6 3 -25 34 -42 69 -30 60 -32 62 -70 62 -22 0 -40 -1 -41 -2z m61 -68 c0
-5 -4 -10 -10 -10 -5 0 -10 5 -10 10 0 6 5 10 10 10 6 0 10 -4 10 -10z"/>
<path d="M2149 2299 c-1 -2 -2 -41 -3 -86 l-2 -83 36 0 c53 0 109 19 120 40
16 29 12 76 -9 101 -14 18 -31 23 -80 27 -33 2 -62 3 -62 1z m113 -61 c12 -20
10 -35 -8 -53 -24 -23 -48 -15 -52 18 -2 16 -1 35 2 42 6 17 46 11 58 -7z"/>
<path d="M2659 2298 c-1 -2 -2 -20 -3 -41 -2 -21 -13 -51 -25 -68 -29 -39 -21
-59 24 -59 31 0 35 3 35 26 0 22 4 25 28 22 19 -2 27 -9 27 -23 0 -15 8 -21
29 -23 43 -5 54 12 30 45 -12 16 -29 49 -39 76 -17 46 -18 47 -61 47 -24 0
-44 -1 -45 -2z m65 -63 c3 -9 0 -15 -9 -15 -9 0 -12 6 -9 15 4 8 7 15 9 15 2
0 5 -7 9 -15z"/>
<path d="M2924 2285 c-4 -8 -1 -22 6 -30 8 -9 10 -27 6 -47 -14 -72 -14 -73
27 -76 l38 -3 -6 43 -7 42 39 -44 c51 -57 72 -51 74 20 2 59 2 61 12 78 13 20
-2 32 -38 32 -40 0 -50 -12 -33 -39 23 -37 -2 -35 -36 2 -35 38 -72 48 -82 22z"/>
<path d="M3224 2285 c-4 -8 -1 -22 6 -30 7 -8 10 -29 7 -47 -3 -18 -7 -42 -9
-53 -2 -17 3 -20 37 -23 22 -2 58 3 80 10 31 10 41 20 48 45 12 41 -5 86 -39
102 -38 17 -123 14 -130 -4z m112 -33 c6 -4 14 -17 18 -29 5 -17 1 -26 -18
-39 -34 -21 -56 -12 -56 24 0 42 27 63 56 44z"/>
<path d="M3684 2289 c-3 -6 -1 -16 5 -22 6 -6 11 -29 11 -52 0 -23 -5 -46 -11
-52 -23 -23 2 -34 68 -31 55 2 68 6 80 25 18 27 11 121 -9 134 -19 13 -136 11
-144 -2z m98 -30 c16 -9 18 -13 7 -19 -14 -9 -49 5 -49 20 0 13 17 13 42 -1z
m14 -70 c3 -6 2 -15 -4 -21 -12 -12 -55 8 -47 23 8 12 42 12 51 -2z"/>
<path d="M3954 2292 c2 -4 7 -27 11 -52 12 -79 47 -123 91 -115 10 2 22 4 27
4 22 3 47 44 47 79 0 21 5 43 11 49 21 21 2 45 -33 41 -28 -3 -33 -6 -30 -28
5 -57 2 -84 -11 -97 -12 -12 -16 -12 -31 2 -18 19 -21 66 -5 82 22 22 2 43
-41 43 -23 0 -39 -3 -36 -8z"/>
<path d="M4250 2276 c0 -34 25 -53 39 -29 9 17 10 17 16 0 4 -9 5 -30 2 -45
-14 -69 -14 -67 26 -70 l37 -3 -5 60 c-5 56 4 78 20 51 11 -18 25 0 25 31 l0
29 -80 0 c-78 0 -80 -1 -80 -24z"/>
<path d="M4520 2277 c0 -36 20 -50 43 -29 18 16 19 16 12 -32 -13 -83 -13 -81
28 -84 40 -3 47 10 26 49 -6 11 -7 34 -4 50 6 28 8 29 24 15 22 -20 31 -12 31
26 l0 28 -80 0 c-77 0 -80 -1 -80 -23z"/>
<path d="M4785 2290 c-4 -6 -3 -16 2 -23 15 -19 16 -89 2 -97 -6 -5 -9 -15 -6
-24 6 -14 19 -16 74 -14 66 3 68 4 71 31 2 19 -1 27 -12 27 -8 0 -18 -4 -21
-10 -3 -5 -15 -10 -26 -10 -10 0 -19 5 -19 10 0 6 6 10 14 10 27 0 29 22 5 41
-26 20 -15 29 31 26 19 -2 25 3 25 18 0 18 -8 20 -67 23 -40 2 -69 -1 -73 -8z"/>
<path d="M5043 2284 c-3 -8 -1 -20 6 -27 6 -6 11 -25 11 -42 0 -17 -5 -36 -11
-42 -21 -21 -2 -43 35 -43 34 0 61 20 38 28 -14 4 -16 32 -2 32 5 0 16 -13 25
-30 17 -32 26 -36 56 -20 22 12 25 30 5 30 -21 0 -26 23 -10 45 19 26 18 41
-6 65 -26 26 -137 29 -147 4z m115 -41 c5 -17 -26 -29 -40 -15 -6 6 -7 15 -3
22 9 14 37 9 43 -7z"/>
<path d="M5559 2285 c-37 -20 -50 -62 -34 -103 13 -30 56 -59 85 -56 8 1 23 2
33 3 22 1 34 30 17 41 -7 5 -24 4 -36 -1 -17 -6 -28 -4 -38 6 -49 50 -6 115
45 69 20 -18 39 -11 39 15 0 40 -59 54 -111 26z"/>
<path d="M5814 2282 c-64 -54 -29 -152 56 -154 87 -3 128 87 69 151 -25 27
-95 28 -125 3z m90 -35 c15 -11 17 -19 9 -43 -7 -22 -16 -30 -40 -32 -35 -4
-50 20 -39 64 7 27 40 33 70 11z"/>
</g>
</svg>
