 <svg version="1.0" xmlns="http://www.w3.org/2000/svg" width="700.000000pt" height="700.000000pt" viewBox="0 0 700.000000 700.000000" preserveAspectRatio="xMidYMid meet">
<metadata>
Created by potrace 1.12, written by Peter Selinger 2001-2015
</metadata>
<g transform="translate(0.000000,700.000000) scale(0.100000,-0.100000)" fill="#000000" stroke="none">
<path d="M1820 4861 c-110 -35 -196 -125 -275 -284 -64 -129 -106 -280 -131
-471 -23 -173 -15 -508 15 -661 31 -155 28 -148 64 -141 17 3 32 8 34 10 2 1
-5 45 -16 97 -34 165 -44 293 -38 484 11 372 103 672 252 821 64 65 126 91
183 78 197 -48 351 -392 378 -847 l7 -117 35 0 35 0 -6 128 c-16 323 -114 638
-245 783 -24 27 -43 51 -41 53 2 2 26 -3 53 -11 162 -48 322 -409 342 -771 3
-53 7 -116 10 -139 5 -41 7 -43 40 -43 l34 0 0 203 c0 231 6 254 76 294 71 41
144 22 198 -50 19 -26 21 -44 24 -238 l3 -209 35 0 34 0 0 209 c0 162 -3 217
-15 244 -8 20 -19 38 -25 42 -22 13 -9 24 18 14 41 -15 81 -58 92 -98 5 -20
10 -129 10 -243 l0 -208 35 0 35 0 0 224 c0 133 -4 236 -11 253 -21 56 -61
102 -112 128 -46 23 -62 25 -176 25 -143 0 -189 -15 -241 -78 -16 -20 -31 -34
-33 -31 -1 2 -13 40 -25 84 -33 115 -121 289 -180 355 -27 31 -74 69 -103 85
-52 29 -59 30 -199 32 -80 1 -156 -1 -170 -6z"></path>
<path d="M3620 3750 l0 -1100 1095 0 1095 0 0 1100 0 1100 -1095 0 -1095 0 0
-1100z m455 229 c85 -21 128 -105 87 -170 l-20 -32 21 -30 c34 -45 30 -109 -9
-147 -41 -41 -82 -49 -251 -50 l-143 0 0 50 c0 46 2 50 24 50 24 0 24 0 25
120 l2 120 -26 0 c-23 0 -25 4 -25 43 0 24 3 47 7 50 11 11 261 8 308 -4z
m475 -9 c15 -30 88 -196 111 -255 19 -45 31 -61 49 -65 22 -5 25 -11 25 -50
l0 -45 -102 -3 -103 -3 0 40 c0 26 5 43 16 49 11 6 14 16 9 31 -6 20 -12 22
-78 19 -61 -3 -72 -6 -75 -22 -2 -10 3 -23 12 -28 10 -6 16 -23 16 -48 l0 -40
-105 0 -105 0 0 50 c0 45 2 50 23 50 23 0 34 20 94 159 28 66 28 67 3 74 -16
4 -20 14 -20 49 0 25 3 48 7 52 4 4 54 6 112 4 80 -2 106 -6 111 -18z m551 9
c21 -7 51 -25 66 -41 23 -24 28 -38 28 -78 0 -33 -6 -55 -17 -66 -15 -16 -15
-19 5 -46 34 -46 30 -109 -9 -148 -41 -41 -82 -49 -251 -50 l-143 0 0 50 c0
46 2 50 24 50 24 0 24 0 25 120 l2 120 -26 0 c-23 0 -25 4 -25 43 0 24 3 47 7
50 11 12 273 8 314 -4z m482 -17 c37 -23 37 -24 37 -88 l0 -65 -52 3 c-51 3
-53 4 -53 33 0 29 -2 30 -51 33 -47 3 -54 0 -78 -28 -35 -42 -37 -116 -3 -155
31 -37 105 -46 154 -20 l34 19 36 -37 37 -36 -25 -20 c-37 -31 -87 -45 -159
-45 -135 0 -219 80 -221 211 -2 98 41 165 129 204 56 25 167 20 215 -9z"></path>
<path d="M3930 3871 c0 -11 -3 -26 -6 -35 -5 -14 4 -16 59 -16 70 0 87 13 67
51 -9 15 -22 19 -65 19 -48 0 -55 -3 -55 -19z"></path>
<path d="M3930 3690 l0 -40 60 0 c48 0 61 4 70 19 13 25 13 27 -6 45 -10 11
-34 16 -70 16 l-54 0 0 -40z"></path>
<path d="M4460 3830 c-16 -38 -7 -60 21 -55 12 2 24 6 26 9 5 4 -24 76 -30 76
-3 0 -10 -13 -17 -30z"></path>
<path d="M4950 3871 c0 -11 -3 -26 -6 -35 -5 -14 4 -16 59 -16 70 0 87 13 67
51 -9 15 -22 19 -65 19 -48 0 -55 -3 -55 -19z"></path>
<path d="M4950 3690 l0 -40 58 0 c60 0 82 11 82 42 0 25 -31 38 -89 38 l-51 0
0 -40z"></path>
<path d="M1715 4397 c-46 -26 -82 -75 -91 -125 -12 -64 -6 -67 177 -70 104 -2
180 1 207 9 52 14 106 71 123 129 22 73 19 75 -192 77 -175 3 -186 2 -224 -20z
m333 -69 c-30 -47 -72 -58 -215 -58 -73 0 -133 3 -133 8 1 12 34 49 55 60 12
7 79 12 164 12 l143 0 -14 -22z"></path>
<path d="M2677 4152 c-51 -52 -60 -86 -26 -97 17 -6 32 4 70 41 50 49 58 71
37 92 -20 20 -31 14 -81 -36z"></path>
<path d="M1702 4037 c-66 -21 -142 -143 -115 -185 9 -15 35 -17 179 -20 177
-3 223 3 268 39 52 41 83 138 54 167 -15 15 -338 15 -386 -1z m318 -65 c0 -12
-22 -37 -50 -56 -20 -13 -51 -16 -168 -16 l-144 0 14 23 c30 46 72 57 216 57
72 0 132 -4 132 -8z"></path>
<path d="M2675 3969 c-35 -33 -45 -48 -43 -68 2 -20 9 -27 29 -29 21 -2 35 7
68 44 76 86 30 131 -54 53z"></path>
<path d="M1991 3735 c-183 -40 -331 -161 -331 -272 0 -51 19 -101 49 -127 15
-14 21 -31 21 -63 l0 -43 -97 0 c-80 0 -104 -4 -131 -20 -35 -22 -52 -54 -52
-101 0 -25 -4 -29 -30 -29 -39 0 -76 -18 -95 -46 -8 -12 -29 -25 -47 -29 -43
-9 -74 -39 -104 -97 -22 -43 -28 -48 -58 -48 -49 0 -59 -18 -54 -96 4 -60 7
-70 36 -95 l32 -29 1010 0 1010 0 32 29 33 29 3 309 3 308 24 25 c48 51 59
133 26 199 -43 83 -177 166 -316 196 -98 21 -868 20 -964 0z m273 -70 c93 -20
185 -64 235 -114 63 -63 66 -111 11 -175 l-30 -34 0 -296 c0 -186 -4 -305 -10
-317 -7 -12 -21 -19 -40 -19 l-30 0 0 63 c0 72 -10 87 -57 87 -29 0 -35 5 -58
50 -31 62 -57 86 -101 95 -20 3 -41 16 -49 29 -18 28 -56 46 -94 46 -26 0 -29
3 -34 46 -8 72 -38 96 -129 103 l-73 6 -3 54 c-3 44 -9 62 -32 88 -55 63 -52
111 11 174 103 103 308 151 483 114z m671 0 c196 -41 332 -173 269 -263 -15
-21 -21 -22 -185 -22 l-169 0 0 -35 0 -34 148 -3 147 -3 3 -284 c2 -201 -1
-288 -9 -297 -9 -11 -68 -14 -303 -14 l-291 0 3 300 3 300 89 0 90 0 0 35 0
35 -59 0 -59 0 5 59 c5 52 2 66 -21 105 -14 24 -47 62 -74 82 -26 21 -51 42
-56 46 -18 15 394 9 469 -7z m-1010 -521 c9 -10 14 -26 11 -38 -2 -12 -15 -72
-27 -133 l-22 -113 -157 0 -157 0 -22 113 c-12 61 -25 121 -27 133 -3 12 2 28
11 38 14 14 43 16 195 16 152 0 181 -2 195 -16z m-445 -191 c6 -32 14 -66 17
-76 4 -16 -1 -18 -39 -15 -43 3 -43 3 -62 60 -24 67 -14 88 40 88 32 0 33 -1
44 -57z m588 45 c17 -17 15 -39 -8 -92 -18 -44 -21 -46 -60 -46 -35 0 -41 3
-36 18 2 9 10 43 16 75 11 55 12 57 44 57 17 0 37 -5 44 -12z m-741 -103 l11
-35 -54 0 c-54 0 -54 0 -43 23 20 37 31 47 54 47 16 0 24 -9 32 -35z m886 -2
l19 -33 -56 0 -56 0 11 26 c5 15 12 31 15 36 12 18 49 2 67 -29z m115 -133 c8
-51 23 -50 -599 -50 l-579 0 -12 24 c-23 53 -46 51 593 49 593 -3 594 -3 597
-23z"></path>
<path d="M2180 3530 c0 -39 1 -40 35 -40 34 0 35 1 35 40 0 39 -1 40 -35 40
-34 0 -35 -1 -35 -40z"></path>
<path d="M1880 3415 c0 -33 2 -35 35 -35 33 0 35 2 35 35 0 33 -2 35 -35 35
-33 0 -35 -2 -35 -35z"></path>
<path d="M2220 3195 c0 -33 2 -35 35 -35 33 0 35 2 35 35 0 33 -2 35 -35 35
-33 0 -35 -2 -35 -35z"></path>
<path d="M1030 2286 c0 -8 5 -18 10 -21 6 -3 10 -26 10 -50 0 -24 -4 -47 -10
-50 -5 -3 -10 -13 -10 -21 0 -23 121 -19 151 5 20 16 22 22 12 43 -6 13 -9 36
-6 51 9 44 -11 57 -88 57 -53 0 -69 -3 -69 -14z m115 -36 c0 -9 -11 -16 -27
-18 -23 -3 -28 1 -28 18 0 17 5 21 28 18 16 -2 27 -9 27 -18z m3 -67 c-2 -11
-14 -19 -31 -21 -22 -3 -27 1 -27 17 0 17 6 21 31 21 24 0 30 -4 27 -17z"></path>
<path d="M1300 2286 c0 -8 5 -18 10 -21 6 -3 10 -26 10 -51 0 -24 -4 -44 -10
-44 -5 0 -10 -9 -10 -20 0 -17 7 -20 45 -20 33 0 45 4 45 15 0 8 -4 15 -10 15
-5 0 -10 7 -10 15 0 26 21 16 33 -15 10 -26 16 -30 42 -28 31 3 51 38 21 38
-24 0 -29 20 -11 40 19 21 14 68 -8 82 -7 4 -42 8 -79 8 -53 0 -68 -3 -68 -14z
m120 -46 c0 -15 -7 -20 -25 -20 -18 0 -25 5 -25 20 0 15 7 20 25 20 18 0 25
-5 25 -20z"></path>
<path d="M1585 2215 l0 -85 73 0 72 0 0 30 c0 23 -4 30 -20 30 -11 0 -20 -4
-20 -10 0 -5 -11 -10 -25 -10 -14 0 -25 5 -25 10 0 6 9 10 20 10 13 0 20 7 20
19 0 10 -9 21 -20 24 -11 3 -20 11 -20 17 0 9 13 10 45 6 43 -7 45 -6 45 18 0
26 -1 26 -72 26 l-73 0 0 -85z"></path>
<path d="M1870 2286 c0 -8 4 -18 10 -21 10 -6 -29 -95 -42 -95 -4 0 -8 -9 -8
-20 0 -17 7 -20 41 -20 39 0 41 2 37 25 -5 22 -2 25 27 25 29 0 32 -3 27 -25
-4 -23 -2 -25 37 -25 34 0 41 3 41 20 0 11 -4 20 -10 20 -5 0 -23 29 -39 65
l-30 65 -45 0 c-33 0 -46 -4 -46 -14z m69 -65 c-15 -5 -22 6 -14 19 6 9 10 9
16 -1 5 -8 4 -15 -2 -18z"></path>
<path d="M2145 2214 l0 -86 62 4 c79 5 103 24 103 83 0 62 -29 85 -106 85
l-59 0 0 -86z m118 24 c17 -26 -7 -68 -38 -68 -23 0 -25 4 -25 46 0 43 1 45
26 42 15 -2 32 -11 37 -20z"></path>
<path d="M2650 2286 c0 -8 4 -18 10 -21 10 -6 -29 -95 -42 -95 -4 0 -8 -9 -8
-20 0 -17 7 -20 41 -20 39 0 41 2 37 25 -5 23 -2 25 29 25 31 0 33 -2 27 -25
-6 -24 -4 -25 35 -25 34 0 41 3 41 19 0 10 -6 21 -13 24 -7 3 -24 32 -37 66
l-25 61 -47 0 c-35 0 -48 -4 -48 -14z m69 -65 c-15 -5 -22 6 -14 19 6 9 10 9
16 -1 5 -8 4 -15 -2 -18z"></path>
<path d="M2920 2280 c0 -11 5 -20 10 -20 6 0 10 -18 10 -39 0 -22 -4 -43 -10
-46 -5 -3 -10 -15 -10 -26 0 -16 7 -19 41 -19 l41 0 -7 40 c-4 22 -4 40 -1 40
3 0 18 -18 32 -40 19 -28 34 -40 50 -40 23 0 24 3 24 64 0 36 5 68 10 71 6 3
10 13 10 21 0 10 -12 14 -45 14 -33 0 -45 -4 -45 -14 0 -8 5 -18 10 -21 6 -3
10 -16 10 -28 -1 -19 -6 -16 -38 21 -27 30 -45 42 -65 42 -20 0 -27 -5 -27
-20z"></path>
<path d="M3220 2280 c0 -11 5 -20 10 -20 6 0 10 -20 10 -45 0 -25 -4 -45 -10
-45 -5 0 -10 -10 -10 -21 0 -20 4 -21 71 -17 60 3 74 8 90 27 27 33 25 86 -6
116 -21 22 -33 25 -90 25 -58 0 -65 -2 -65 -20z m132 -45 c9 -21 8 -28 -7 -45
-10 -11 -29 -20 -42 -20 -19 0 -23 5 -23 29 0 45 10 61 36 61 16 0 28 -8 36
-25z"></path>
<path d="M3680 2285 c0 -8 5 -15 10 -15 6 0 10 -25 10 -55 0 -30 -4 -55 -10
-55 -5 0 -10 -7 -10 -15 0 -12 13 -15 59 -15 33 0 71 4 85 10 23 8 25 14 24
72 -1 35 -6 69 -11 76 -6 8 -36 12 -83 12 -59 0 -74 -3 -74 -15z m115 -35 c0
-23 -49 -20 -53 3 -3 15 2 18 25 15 17 -2 28 -9 28 -18z m5 -71 c0 -16 -5 -20
-27 -17 -17 2 -29 10 -31 21 -3 13 3 17 27 17 25 0 31 -4 31 -21z"></path>
<path d="M3955 2283 c4 -10 11 -40 15 -67 12 -84 77 -120 134 -75 22 17 26 28
26 70 0 27 5 49 10 49 6 0 10 9 10 20 0 17 -7 20 -40 20 -33 0 -40 -3 -40 -20
0 -11 3 -20 8 -20 4 0 6 -20 4 -44 -4 -47 -24 -65 -48 -45 -16 13 -19 89 -4
89 6 0 10 9 10 20 0 17 -7 20 -46 20 -40 0 -45 -2 -39 -17z"></path>
<path d="M4252 2268 c2 -21 9 -32 21 -34 9 -1 17 4 17 12 0 8 5 14 10 14 6 0
10 -20 10 -45 0 -25 -4 -45 -10 -45 -5 0 -10 -9 -10 -20 0 -17 7 -20 40 -20
l39 0 -5 68 c-5 56 -3 65 8 52 24 -27 38 -22 38 15 l0 35 -81 0 -80 0 3 -32z"></path>
<path d="M4522 2268 c2 -21 9 -32 21 -34 9 -1 17 4 17 12 0 8 5 14 11 14 11 0
8 -45 -6 -102 -7 -27 -6 -28 34 -28 34 0 41 3 41 19 0 11 -5 23 -10 26 -6 4
-10 24 -8 46 2 38 12 51 20 27 2 -6 12 -12 21 -14 13 -2 17 5 17 32 l0 34 -81
0 -80 0 3 -32z"></path>
<path d="M4780 2286 c0 -8 5 -18 10 -21 6 -3 10 -26 10 -51 0 -24 -4 -44 -10
-44 -5 0 -10 -9 -10 -20 0 -18 7 -20 74 -20 71 0 74 1 79 26 3 17 0 28 -11 32
-9 3 -18 0 -20 -6 -4 -14 -52 -16 -52 -3 0 5 9 11 20 14 11 3 20 12 20 21 0 9
-8 16 -20 16 -12 0 -20 7 -20 16 0 14 7 15 40 10 38 -6 40 -5 40 19 0 24 -2
25 -75 25 -59 0 -75 -3 -75 -14z"></path>
<path d="M5040 2280 c0 -11 5 -20 10 -20 6 0 10 -20 10 -45 0 -25 -4 -45 -10
-45 -5 0 -10 -9 -10 -20 0 -17 7 -20 45 -20 33 0 45 4 45 15 0 8 -4 15 -10 15
-5 0 -10 7 -10 15 0 26 21 16 33 -15 10 -26 16 -30 42 -28 31 3 51 38 21 38
-23 0 -30 20 -12 39 20 22 20 41 0 69 -13 19 -24 22 -85 22 -62 0 -69 -2 -69
-20z m120 -40 c0 -15 -7 -20 -25 -20 -18 0 -25 5 -25 20 0 15 7 20 25 20 18 0
25 -5 25 -20z"></path>
<path d="M5544 2276 c-61 -52 -18 -151 66 -151 48 0 80 25 56 44 -11 9 -20 10
-36 1 -44 -24 -93 43 -58 78 17 17 58 15 58 -3 0 -8 9 -15 20 -15 15 0 20 7
20 29 0 48 -78 59 -126 17z"></path>
<path d="M5805 2275 c-55 -54 -15 -150 62 -150 80 0 124 66 89 133 -18 35 -33
42 -87 42 -29 0 -47 -7 -64 -25z m103 -27 c35 -35 -14 -102 -57 -78 -15 7 -21
21 -21 44 0 18 3 36 7 39 11 11 58 8 71 -5z"></path>
</g>
</svg>