<svg id="svg" version="1.1" xmlns="http://www.w3.org/2000/svg" xmlns:xlink="http://www.w3.org/1999/xlink" width="400" height="400" viewBox="0, 0, 400,400"><g id="svgg"><path id="path1" d="M103.482 122.124 C 84.492 128.217,74.090 170.808,82.496 208.047 C 82.957 210.087,83.333 211.797,83.333 211.846 C 83.333 212.022,87.171 210.942,87.429 210.694 C 87.574 210.555,87.395 209.104,87.033 207.471 C 79.525 173.654,87.857 133.664,103.833 126.834 C 116.394 121.464,129.074 145.010,130.534 176.417 L 130.763 181.333 133.088 181.333 L 135.414 181.333 135.184 176.750 C 134.082 154.752,128.679 137.141,120.276 128.158 L 118.338 126.087 119.866 126.372 C 130.791 128.413,139.970 149.942,141.201 176.417 L 141.430 181.333 143.525 181.333 L 145.620 181.333 145.727 169.917 C 145.831 158.703,145.848 158.469,146.631 156.735 C 149.605 150.152,158.724 150.111,161.789 156.667 C 162.453 158.085,162.497 158.796,162.598 169.750 L 162.706 181.333 164.853 181.333 L 167.000 181.333 167.000 169.346 C 167.000 156.326,166.869 155.285,164.921 152.808 L 164.202 151.895 165.184 152.140 C 167.182 152.639,169.307 154.615,170.352 156.944 C 170.957 158.293,171.000 159.229,171.000 171.028 L 171.000 183.667 173.351 183.667 L 175.702 183.667 175.601 170.242 L 175.500 156.817 174.411 154.606 C 173.018 151.778,170.119 149.022,167.428 147.968 C 163.562 146.453,151.841 146.714,148.559 148.388 C 146.983 149.192,143.775 152.134,143.488 153.039 C 143.142 154.129,142.786 153.728,142.346 151.750 C 139.521 139.055,131.862 126.774,124.501 123.134 L 121.871 121.833 113.352 121.762 C 107.106 121.710,104.473 121.806,103.482 122.124 M206.333 185.500 L 206.333 248.667 269.333 248.667 L 332.333 248.667 332.333 185.500 L 332.333 122.333 269.333 122.333 L 206.333 122.333 206.333 185.500 M100.794 147.316 C 95.409 148.602,90.572 155.762,92.796 159.156 L 93.349 160.000 103.615 160.000 C 115.378 160.000,115.919 159.907,118.683 157.422 C 121.944 154.490,123.459 149.267,121.496 147.723 C 120.539 146.970,103.636 146.638,100.794 147.316 M116.847 152.640 C 115.505 155.235,113.468 155.718,104.393 155.596 L 97.287 155.500 98.063 154.333 C 99.662 151.929,100.795 151.667,109.579 151.667 L 117.350 151.667 116.847 152.640 M152.639 162.594 C 149.147 166.025,149.006 168.667,152.315 168.667 C 153.462 168.667,158.667 163.413,158.667 162.255 C 158.667 159.221,155.914 159.375,152.639 162.594 M97.529 168.999 C 92.664 170.552,88.289 178.380,90.943 180.782 C 91.951 181.694,110.925 181.602,113.409 180.672 C 118.228 178.869,122.040 171.676,119.515 169.152 L 118.697 168.333 109.098 168.351 C 100.639 168.367,99.266 168.444,97.529 168.999 M152.606 173.273 C 149.267 176.611,149.103 179.333,152.241 179.333 C 153.459 179.333,158.667 174.137,158.667 172.922 C 158.667 169.864,155.851 170.027,152.606 173.273 M316.312 172.521 C 317.332 172.807,318.838 173.529,319.659 174.125 L 321.150 175.209 321.195 178.521 C 321.246 182.353,321.270 182.321,318.395 182.328 C 315.453 182.335,314.867 181.964,315.139 180.264 C 315.804 176.106,308.336 177.387,306.516 181.744 C 303.889 188.030,310.276 193.274,316.543 189.977 L 318.487 188.955 320.467 191.003 L 322.447 193.051 321.473 193.855 C 314.215 199.845,302.318 196.912,299.818 188.515 C 296.779 178.308,305.792 169.569,316.312 172.521 M234.816 173.333 C 237.525 174.702,238.500 176.235,238.500 179.127 C 238.500 181.505,238.428 181.711,236.844 183.865 C 236.619 184.172,236.738 184.533,237.240 185.068 C 240.013 188.022,239.863 192.295,236.895 194.901 C 234.934 196.623,233.993 196.771,224.069 196.915 L 214.972 197.048 215.069 194.274 L 215.167 191.500 216.333 191.500 L 217.500 191.500 217.600 184.583 L 217.700 177.667 216.350 177.667 L 215.000 177.667 215.000 174.976 L 215.000 172.286 224.083 172.393 C 233.007 172.498,233.196 172.515,234.816 173.333 M260.057 173.250 C 260.263 173.754,261.312 176.065,262.388 178.385 C 263.463 180.705,264.954 184.228,265.700 186.214 C 267.549 191.138,267.859 191.612,269.312 191.734 L 270.500 191.833 270.500 194.333 L 270.500 196.833 264.789 196.924 C 258.357 197.027,258.728 197.193,258.928 194.291 C 259.038 192.695,259.177 192.360,259.862 192.048 C 260.757 191.640,260.812 191.426,260.342 190.188 C 259.931 189.109,251.938 188.812,251.536 189.861 C 251.110 190.969,251.314 192.000,251.959 192.000 C 253.006 192.000,253.375 192.814,253.267 194.889 L 253.167 196.833 247.167 196.833 L 241.167 196.833 241.167 194.333 L 241.167 191.833 242.416 191.730 C 243.806 191.615,243.855 191.533,247.705 182.833 C 249.656 178.423,249.695 178.077,248.250 177.938 L 247.167 177.833 247.067 175.533 C 246.918 172.096,246.442 172.333,253.497 172.333 L 259.681 172.333 260.057 173.250 M293.150 173.333 C 295.858 174.702,296.833 176.235,296.833 179.127 C 296.833 181.505,296.761 181.711,295.178 183.865 C 294.952 184.172,295.071 184.533,295.574 185.068 C 298.347 188.022,298.196 192.295,295.228 194.901 C 293.268 196.623,292.326 196.771,282.403 196.915 L 273.306 197.048 273.403 194.274 L 273.500 191.500 274.667 191.500 L 275.833 191.500 275.933 184.583 L 276.033 177.667 274.683 177.667 L 273.333 177.667 273.333 174.976 L 273.333 172.286 282.417 172.393 C 291.340 172.498,291.529 172.515,293.150 173.333 M115.000 173.474 C 115.000 174.185,112.377 176.290,111.022 176.666 C 109.465 177.099,95.333 177.110,95.333 176.678 C 95.333 176.098,97.303 174.098,98.413 173.551 C 99.942 172.797,115.000 172.727,115.000 173.474 M224.250 179.583 C 224.032 182.094,223.909 182.001,227.436 181.995 C 230.712 181.989,231.024 181.898,231.616 180.774 C 232.665 178.779,231.188 177.667,227.490 177.667 L 224.416 177.667 224.250 179.583 M282.583 179.583 C 282.365 182.094,282.242 182.001,285.770 181.995 C 289.045 181.989,289.357 181.898,289.949 180.774 C 290.999 178.779,289.521 177.667,285.823 177.667 L 282.749 177.667 282.583 179.583 M254.699 181.493 C 253.747 183.789,253.916 184.335,255.573 184.328 C 257.727 184.320,257.917 184.005,257.119 181.769 C 256.213 179.231,255.663 179.168,254.699 181.493 M119.333 185.551 C 100.373 187.357,88.288 200.738,97.529 209.694 C 98.604 210.737,98.667 210.922,98.667 213.065 L 98.667 215.333 93.105 215.333 C 85.109 215.333,82.833 216.711,82.833 221.553 L 82.833 223.665 81.539 223.666 C 78.772 223.668,75.000 225.879,75.000 227.500 C 75.000 227.850,74.647 228.000,73.823 228.000 C 70.855 228.000,69.039 229.507,67.003 233.660 L 65.530 236.667 63.439 236.667 C 60.527 236.667,60.206 237.186,60.398 241.584 C 60.576 245.669,61.282 247.216,63.583 248.569 L 65.167 249.500 121.617 249.587 C 182.083 249.680,179.796 249.744,181.887 247.908 C 184.043 246.015,184.000 246.425,184.000 227.909 L 184.000 211.129 185.489 209.530 C 193.953 200.441,182.722 187.576,164.667 185.678 C 161.828 185.379,122.296 185.269,119.333 185.551 M224.333 189.333 L 224.333 191.667 227.630 191.667 C 231.498 191.667,232.444 191.208,232.444 189.333 C 232.444 187.459,231.498 187.000,227.630 187.000 L 224.333 187.000 224.333 189.333 M282.667 189.333 L 282.667 191.667 285.963 191.667 C 289.831 191.667,290.778 191.208,290.778 189.333 C 290.778 187.459,289.831 187.000,285.963 187.000 L 282.667 187.000 282.667 189.333 M130.500 190.959 C 143.033 194.114,148.883 201.684,142.985 207.116 L 141.333 208.638 141.333 226.152 C 141.333 246.097,141.493 245.000,138.583 245.000 L 137.167 245.001 137.282 241.657 C 137.435 237.197,137.121 236.667,134.329 236.667 L 132.340 236.667 130.869 233.750 C 128.839 229.726,126.784 228.000,124.019 228.000 C 123.252 228.000,122.901 227.775,122.521 227.040 C 121.461 224.992,119.023 223.673,116.289 223.669 L 115.078 223.667 114.942 221.539 C 114.659 217.089,112.335 215.333,106.728 215.333 L 103.333 215.333 103.333 212.130 L 103.333 208.927 101.792 207.407 C 98.017 203.686,98.199 200.737,102.446 196.769 C 108.596 191.023,120.751 188.506,130.500 190.959 M168.833 190.923 C 180.101 193.889,186.545 200.827,182.641 205.790 L 181.952 206.667 172.309 206.667 L 162.667 206.667 162.667 209.000 L 162.667 211.333 171.167 211.333 L 179.667 211.333 179.667 227.500 C 179.667 243.222,179.648 243.685,179.000 244.333 C 178.351 244.982,177.889 245.000,162.000 245.000 L 145.667 245.000 145.667 228.167 L 145.667 211.333 151.000 211.333 L 156.333 211.333 156.333 209.000 L 156.333 206.667 152.798 206.667 C 149.561 206.667,149.282 206.617,149.501 206.083 C 151.536 201.123,148.347 194.908,141.465 190.422 C 140.209 189.602,165.582 190.068,168.833 190.923 M124.333 198.333 L 124.333 200.667 126.667 200.667 L 129.000 200.667 129.000 198.333 L 129.000 196.000 126.667 196.000 L 124.333 196.000 124.333 198.333 M107.333 204.667 L 107.333 207.000 109.500 207.000 L 111.667 207.000 111.667 204.667 L 111.667 202.333 109.500 202.333 L 107.333 202.333 107.333 204.667 M126.333 217.500 L 126.333 219.667 128.667 219.667 L 131.000 219.667 131.000 217.500 L 131.000 215.333 128.667 215.333 L 126.333 215.333 126.333 217.500 M109.348 220.008 C 110.731 220.748,110.720 221.275,109.161 229.029 C 108.339 233.115,107.667 236.505,107.667 236.562 C 107.667 236.620,103.713 236.667,98.882 236.667 L 90.097 236.667 88.677 229.583 C 87.029 221.357,87.008 221.070,87.995 220.270 C 88.864 219.567,108.082 219.330,109.348 220.008 M84.598 232.106 C 85.571 237.098,85.683 236.715,83.285 236.599 L 81.237 236.500 80.131 233.667 C 78.408 229.250,78.726 228.333,81.983 228.333 L 83.863 228.333 84.598 232.106 M118.057 228.885 C 118.908 229.655,118.827 230.459,117.571 233.686 L 116.476 236.500 114.405 236.599 C 113.265 236.654,112.333 236.562,112.333 236.396 C 112.333 236.017,113.655 229.317,113.842 228.750 C 114.054 228.107,117.312 228.211,118.057 228.885 M75.517 234.407 C 75.875 235.365,76.217 236.265,76.278 236.407 C 76.339 236.550,75.101 236.667,73.528 236.667 C 71.954 236.667,70.667 236.586,70.667 236.487 C 70.667 236.094,72.010 233.705,72.513 233.201 C 73.665 232.049,74.809 232.508,75.517 234.407 M124.822 232.875 C 125.275 233.049,127.000 235.911,127.000 236.489 C 127.000 236.587,125.735 236.667,124.189 236.667 L 121.379 236.667 122.106 234.667 C 122.852 232.617,123.329 232.302,124.822 232.875 M132.667 242.390 C 132.667 245.240,135.770 245.000,98.891 245.000 C 62.087 245.000,65.000 245.219,65.000 242.448 L 65.000 241.000 98.833 241.000 L 132.667 241.000 132.667 242.390 M58.667 269.333 C 58.667 270.000,58.833 270.333,59.167 270.333 C 59.574 270.333,59.667 270.889,59.667 273.333 C 59.667 275.778,59.574 276.333,59.167 276.333 C 58.830 276.333,58.667 276.670,58.667 277.368 L 58.667 278.402 62.862 278.284 C 68.270 278.133,70.233 276.326,67.855 273.689 C 67.449 273.239,67.450 273.077,67.859 272.520 C 69.709 269.997,67.569 268.333,62.474 268.333 L 58.667 268.333 58.667 269.333 M74.333 269.500 C 74.333 270.315,74.484 270.667,74.833 270.667 C 75.236 270.667,75.333 271.185,75.333 273.333 C 75.333 275.481,75.236 276.000,74.833 276.000 C 74.484 276.000,74.333 276.352,74.333 277.167 L 74.333 278.333 76.833 278.333 L 79.333 278.333 79.333 277.333 C 79.333 276.667,79.167 276.333,78.833 276.333 C 78.556 276.333,78.333 276.037,78.333 275.667 C 78.333 275.300,78.548 275.000,78.811 275.000 C 79.549 275.000,80.662 276.779,80.444 277.611 C 80.266 278.293,80.368 278.333,82.288 278.333 C 84.166 278.333,84.336 278.271,84.525 277.519 C 84.772 276.536,84.491 276.000,83.727 276.000 C 82.573 276.000,82.254 274.776,83.171 273.860 C 85.984 271.046,83.356 268.333,77.818 268.333 L 74.333 268.333 74.333 269.500 M90.000 269.500 C 90.000 270.315,90.151 270.667,90.500 270.667 C 90.903 270.667,91.000 271.185,91.000 273.333 C 91.000 275.481,90.903 276.000,90.500 276.000 C 90.151 276.000,90.000 276.352,90.000 277.167 L 90.000 278.333 94.333 278.333 L 98.667 278.333 98.667 277.000 C 98.667 276.267,98.704 275.554,98.750 275.417 C 98.796 275.279,98.346 275.120,97.750 275.062 C 96.930 274.983,96.667 275.089,96.667 275.498 C 96.667 276.286,93.884 276.071,93.733 275.271 C 93.650 274.837,93.915 274.686,94.896 274.605 C 96.862 274.443,97.040 272.431,95.103 272.271 C 93.266 272.120,93.250 270.882,95.083 270.730 C 96.038 270.651,96.333 270.749,96.333 271.147 C 96.333 271.519,96.665 271.667,97.500 271.667 L 98.667 271.667 98.667 270.000 L 98.667 268.333 94.333 268.333 L 90.000 268.333 90.000 269.500 M106.902 268.543 C 106.452 268.993,106.671 270.302,107.250 270.627 C 107.966 271.028,105.732 276.000,104.836 276.000 C 104.484 276.000,104.333 276.349,104.333 277.167 L 104.333 278.333 106.833 278.333 L 109.333 278.333 109.333 277.353 C 109.333 276.814,109.183 276.280,109.000 276.167 C 108.197 275.670,108.803 275.333,110.500 275.333 C 111.907 275.333,112.333 275.449,112.333 275.833 C 112.333 276.108,112.183 276.333,112.000 276.333 C 111.817 276.333,111.667 276.790,111.667 277.348 L 111.667 278.363 114.083 278.265 L 116.500 278.167 116.604 277.083 C 116.689 276.209,116.588 276.000,116.084 276.000 C 115.612 276.000,115.042 275.085,113.747 272.250 L 112.036 268.500 109.586 268.404 C 108.239 268.351,107.031 268.414,106.902 268.543 M122.000 269.500 C 122.000 270.315,122.151 270.667,122.500 270.667 C 122.903 270.667,123.000 271.185,123.000 273.333 C 123.000 275.481,122.903 276.000,122.500 276.000 C 122.151 276.000,122.000 276.352,122.000 277.167 L 122.000 278.333 125.177 278.333 C 130.306 278.333,132.040 277.166,132.269 273.556 C 132.508 269.810,130.502 268.333,125.177 268.333 L 122.000 268.333 122.000 269.500 M151.568 268.543 C 151.118 268.993,151.337 270.302,151.917 270.627 C 152.632 271.028,150.398 276.000,149.503 276.000 C 149.150 276.000,149.000 276.349,149.000 277.167 L 149.000 278.333 151.500 278.333 L 154.000 278.333 154.000 277.353 C 154.000 276.814,153.850 276.280,153.667 276.167 C 152.863 275.670,153.470 275.333,155.167 275.333 C 156.574 275.333,157.000 275.449,157.000 275.833 C 157.000 276.108,156.850 276.333,156.667 276.333 C 156.483 276.333,156.333 276.790,156.333 277.348 L 156.333 278.363 158.750 278.265 L 161.167 278.167 161.271 277.083 C 161.355 276.209,161.255 276.000,160.751 276.000 C 160.278 276.000,159.708 275.085,158.414 272.250 L 156.702 268.500 154.253 268.404 C 152.906 268.351,151.698 268.414,151.568 268.543 M166.667 269.500 C 166.667 270.315,166.817 270.667,167.167 270.667 C 167.569 270.667,167.667 271.185,167.667 273.333 C 167.667 275.481,167.569 276.000,167.167 276.000 C 166.817 276.000,166.667 276.352,166.667 277.167 L 166.667 278.333 169.167 278.333 L 171.667 278.333 171.667 277.167 C 171.667 276.352,171.516 276.000,171.167 276.000 C 170.806 276.000,170.667 275.630,170.667 274.667 C 170.667 272.935,170.638 272.919,172.717 275.828 C 174.389 278.167,174.578 278.323,175.750 278.328 L 177.000 278.333 177.000 274.500 C 177.000 271.315,177.085 270.667,177.500 270.667 C 178.033 270.667,178.056 270.619,178.123 269.333 C 178.165 268.525,178.093 268.497,175.750 268.402 L 173.333 268.304 173.333 269.485 C 173.333 270.313,173.483 270.667,173.833 270.667 C 174.201 270.667,174.330 271.041,174.321 272.083 L 174.308 273.500 173.133 272.167 C 172.486 271.433,171.572 270.271,171.101 269.583 C 170.291 268.401,170.149 268.333,168.456 268.333 L 166.667 268.333 166.667 269.500 M184.000 269.500 C 184.000 270.315,184.151 270.667,184.500 270.667 C 184.903 270.667,185.000 271.185,185.000 273.333 C 185.000 275.481,184.903 276.000,184.500 276.000 C 184.151 276.000,184.000 276.352,184.000 277.167 L 184.000 278.333 187.177 278.333 C 192.306 278.333,194.040 277.166,194.269 273.556 C 194.508 269.810,192.502 268.333,187.177 268.333 L 184.000 268.333 184.000 269.500 M210.333 269.333 C 210.333 270.000,210.500 270.333,210.833 270.333 C 211.241 270.333,211.333 270.889,211.333 273.333 C 211.333 275.778,211.241 276.333,210.833 276.333 C 210.496 276.333,210.333 276.670,210.333 277.368 L 210.333 278.402 214.529 278.284 C 219.936 278.133,221.899 276.326,219.521 273.689 C 219.116 273.239,219.117 273.077,219.525 272.520 C 221.375 269.997,219.235 268.333,214.141 268.333 L 210.333 268.333 210.333 269.333 M225.833 268.750 C 225.556 269.544,225.836 270.501,226.417 270.739 C 226.891 270.934,227.001 271.402,227.005 273.239 C 227.013 276.857,228.557 278.668,231.633 278.665 C 234.794 278.663,236.333 276.756,236.333 272.844 C 236.333 271.131,236.440 270.667,236.833 270.667 C 237.183 270.667,237.333 270.315,237.333 269.500 L 237.333 268.333 234.833 268.333 L 232.333 268.333 232.333 269.500 C 232.333 270.464,232.455 270.667,233.036 270.667 C 233.539 270.667,233.681 270.816,233.536 271.194 C 233.424 271.484,233.333 272.523,233.333 273.503 C 233.333 276.148,231.870 277.203,230.333 275.667 C 229.803 275.137,229.667 274.556,229.667 272.833 C 229.667 270.889,229.735 270.667,230.333 270.667 C 230.873 270.667,231.000 270.444,231.000 269.500 L 231.000 268.333 228.490 268.333 C 226.781 268.333,225.933 268.466,225.833 268.750 M242.903 268.772 C 242.324 270.281,243.077 272.333,244.210 272.333 C 245.196 272.333,245.333 272.228,245.333 271.472 C 245.333 270.933,245.489 270.662,245.750 270.748 C 246.647 271.042,246.391 276.000,245.480 276.000 C 245.154 276.000,245.000 276.374,245.000 277.167 L 245.000 278.333 247.500 278.333 L 250.000 278.333 250.000 277.167 C 250.000 276.352,249.849 276.000,249.500 276.000 C 249.097 276.000,249.000 275.478,249.000 273.306 C 249.000 270.727,249.640 269.572,249.940 271.609 C 250.025 272.191,250.271 272.333,251.190 272.333 L 252.333 272.333 252.333 270.333 L 252.333 268.333 247.702 268.333 C 244.182 268.333,243.031 268.438,242.903 268.772 M258.236 268.772 C 257.657 270.281,258.411 272.333,259.543 272.333 C 260.529 272.333,260.667 272.228,260.667 271.472 C 260.667 270.933,260.822 270.662,261.083 270.748 C 261.980 271.042,261.725 276.000,260.813 276.000 C 260.487 276.000,260.333 276.374,260.333 277.167 L 260.333 278.333 262.833 278.333 L 265.333 278.333 265.333 277.167 C 265.333 276.352,265.183 276.000,264.833 276.000 C 264.430 276.000,264.333 275.478,264.333 273.306 C 264.333 270.727,264.973 269.572,265.273 271.609 C 265.359 272.191,265.604 272.333,266.523 272.333 L 267.667 272.333 267.667 270.333 L 267.667 268.333 263.036 268.333 C 259.515 268.333,258.364 268.438,258.236 268.772 M273.333 269.500 C 273.333 270.315,273.484 270.667,273.833 270.667 C 274.236 270.667,274.333 271.185,274.333 273.333 C 274.333 275.481,274.236 276.000,273.833 276.000 C 273.484 276.000,273.333 276.352,273.333 277.167 L 273.333 278.333 277.667 278.333 L 282.000 278.333 282.000 277.000 C 282.000 276.267,282.037 275.554,282.083 275.417 C 282.129 275.279,281.679 275.120,281.083 275.062 C 280.264 274.983,280.000 275.089,280.000 275.498 C 280.000 276.286,277.218 276.071,277.066 275.271 C 276.984 274.837,277.249 274.686,278.230 274.605 C 280.196 274.443,280.374 272.431,278.436 272.271 C 276.599 272.120,276.584 270.882,278.417 270.730 C 279.371 270.651,279.667 270.749,279.667 271.147 C 279.667 271.519,279.998 271.667,280.833 271.667 L 282.000 271.667 282.000 270.000 L 282.000 268.333 277.667 268.333 L 273.333 268.333 273.333 269.500 M288.000 269.500 C 288.000 270.315,288.151 270.667,288.500 270.667 C 288.903 270.667,289.000 271.185,289.000 273.333 C 289.000 275.481,288.903 276.000,288.500 276.000 C 288.151 276.000,288.000 276.352,288.000 277.167 L 288.000 278.333 290.500 278.333 L 293.000 278.333 293.000 277.333 C 293.000 276.667,292.833 276.333,292.500 276.333 C 292.222 276.333,292.000 276.037,292.000 275.667 C 292.000 275.300,292.215 275.000,292.477 275.000 C 293.216 275.000,294.329 276.779,294.111 277.611 C 293.933 278.293,294.034 278.333,295.955 278.333 C 297.832 278.333,298.003 278.271,298.192 277.519 C 298.439 276.536,298.157 276.000,297.394 276.000 C 296.239 276.000,295.921 274.776,296.837 273.860 C 299.651 271.046,297.023 268.333,291.484 268.333 L 288.000 268.333 288.000 269.500 M318.150 268.802 C 316.794 269.393,315.409 271.091,315.148 272.484 C 314.294 277.037,319.487 280.249,323.690 277.767 L 324.658 277.194 323.804 276.302 C 322.994 275.457,322.898 275.436,321.971 275.898 C 319.971 276.895,317.933 275.659,317.933 273.448 C 317.933 271.055,321.344 269.478,321.605 271.750 C 321.698 272.552,321.855 272.667,322.855 272.667 L 324.000 272.667 324.000 271.038 C 324.000 268.634,321.090 267.522,318.150 268.802 M333.470 268.692 C 329.939 269.717,328.920 274.332,331.627 277.039 C 334.384 279.796,339.548 278.890,340.683 275.450 C 342.201 270.852,338.376 267.268,333.470 268.692 M65.333 270.833 C 65.982 271.614,65.163 272.333,63.626 272.333 C 62.412 272.333,62.333 272.273,62.333 271.333 C 62.333 270.184,64.495 269.823,65.333 270.833 M217.000 270.833 C 217.648 271.614,216.830 272.333,215.293 272.333 C 214.079 272.333,214.000 272.273,214.000 271.333 C 214.000 270.184,216.162 269.823,217.000 270.833 M80.987 271.151 C 81.757 272.078,81.088 273.000,79.644 273.000 C 78.368 273.000,78.333 272.969,78.333 271.833 C 78.333 270.540,80.102 270.085,80.987 271.151 M128.976 271.545 C 130.475 273.451,129.244 276.000,126.826 276.000 L 125.621 276.000 125.712 273.333 L 125.803 270.667 127.044 270.667 C 127.988 270.667,128.450 270.877,128.976 271.545 M190.976 271.545 C 192.475 273.451,191.244 276.000,188.826 276.000 L 187.621 276.000 187.712 273.333 L 187.803 270.667 189.044 270.667 C 189.988 270.667,190.450 270.877,190.976 271.545 M294.653 271.151 C 295.423 272.078,294.754 273.000,293.311 273.000 C 292.035 273.000,292.000 272.969,292.000 271.833 C 292.000 270.540,293.769 270.085,294.653 271.151 M337.342 271.509 C 339.803 274.128,336.266 277.853,333.605 275.444 C 332.793 274.710,332.780 272.295,333.583 271.595 C 334.912 270.437,336.305 270.406,337.342 271.509 M111.118 273.079 C 110.878 273.467,109.667 273.382,109.667 272.978 C 109.667 271.807,110.408 271.206,110.846 272.023 C 111.082 272.464,111.204 272.939,111.118 273.079 M155.784 273.079 C 155.545 273.467,154.333 273.382,154.333 272.978 C 154.333 271.807,155.075 271.206,155.512 272.023 C 155.748 272.464,155.871 272.939,155.784 273.079 M65.500 275.333 C 65.500 276.091,65.356 276.176,63.917 276.268 C 62.345 276.369,62.333 276.362,62.333 275.333 C 62.333 274.305,62.345 274.298,63.917 274.398 C 65.356 274.491,65.500 274.576,65.500 275.333 M217.167 275.333 C 217.167 276.091,217.023 276.176,215.583 276.268 C 214.012 276.369,214.000 276.362,214.000 275.333 C 214.000 274.305,214.012 274.298,215.583 274.398 C 217.023 274.491,217.167 274.576,217.167 275.333 " stroke="none" fill="#5c4ce4" fill-rule="evenodd"></path><path id="path2" d="" stroke="none" fill="#f0c8e8" fill-rule="evenodd"></path><path id="path3" d="" stroke="none" fill="#a874e8" fill-rule="evenodd"></path><path id="path4" d="" stroke="none" fill="#5c78e8" fill-rule="evenodd"></path><path id="path0" d="M308.341 172.534 C 296.420 175.738,296.024 192.678,307.785 196.297 C 312.475 197.740,317.949 196.763,321.473 193.855 L 322.447 193.051 320.467 191.003 L 318.487 188.955 316.543 189.977 C 311.370 192.698,306.000 189.909,306.000 184.500 C 306.000 180.481,308.459 178.000,312.443 178.000 C 315.013 178.000,315.443 178.362,315.139 180.264 C 314.867 181.964,315.453 182.335,318.395 182.328 C 321.270 182.321,321.246 182.353,321.195 178.521 L 321.150 175.209 319.659 174.125 C 316.882 172.108,312.317 171.466,308.341 172.534 M215.000 174.976 L 215.000 177.667 216.350 177.667 L 217.700 177.667 217.600 184.583 L 217.500 191.500 216.333 191.500 L 215.167 191.500 215.069 194.274 L 214.972 197.048 224.069 196.915 C 233.993 196.771,234.934 196.623,236.895 194.901 C 239.863 192.295,240.013 188.022,237.240 185.068 C 236.738 184.533,236.619 184.172,236.844 183.865 C 238.428 181.711,238.500 181.505,238.500 179.127 C 238.500 173.576,236.275 172.537,224.083 172.393 L 215.000 172.286 215.000 174.976 M247.140 172.783 C 247.045 173.030,247.012 174.268,247.067 175.533 L 247.167 177.833 248.250 177.938 C 249.695 178.077,249.656 178.423,247.705 182.833 C 243.855 191.533,243.806 191.615,242.416 191.730 L 241.167 191.833 241.167 194.333 L 241.167 196.833 247.167 196.833 L 253.167 196.833 253.267 194.889 C 253.375 192.814,253.006 192.000,251.959 192.000 C 251.314 192.000,251.110 190.969,251.536 189.861 C 251.938 188.812,259.931 189.109,260.342 190.188 C 260.812 191.426,260.757 191.640,259.862 192.048 C 259.177 192.360,259.038 192.695,258.928 194.291 C 258.728 197.193,258.357 197.027,264.789 196.924 L 270.500 196.833 270.500 194.333 L 270.500 191.833 269.312 191.734 C 267.859 191.612,267.549 191.138,265.700 186.214 C 264.954 184.228,263.463 180.705,262.388 178.385 C 261.312 176.065,260.263 173.754,260.057 173.250 L 259.681 172.333 253.497 172.333 C 248.614 172.333,247.276 172.428,247.140 172.783 M273.333 174.976 L 273.333 177.667 274.683 177.667 L 276.033 177.667 275.933 184.583 L 275.833 191.500 274.667 191.500 L 273.500 191.500 273.403 194.274 L 273.306 197.048 282.403 196.915 C 292.326 196.771,293.268 196.623,295.228 194.901 C 298.196 192.295,298.347 188.022,295.574 185.068 C 295.071 184.533,294.952 184.172,295.178 183.865 C 296.761 181.711,296.833 181.505,296.833 179.127 C 296.833 173.576,294.608 172.537,282.417 172.393 L 273.333 172.286 273.333 174.976 M231.064 178.250 C 232.107 179.465,232.022 180.973,230.867 181.745 C 230.383 182.068,224.415 182.072,224.228 181.750 C 224.149 181.612,224.158 180.637,224.250 179.583 L 224.416 177.667 227.490 177.667 C 230.004 177.667,230.655 177.773,231.064 178.250 M289.398 178.250 C 290.441 179.465,290.355 180.973,289.200 181.745 C 288.717 182.068,282.748 182.072,282.561 181.750 C 282.482 181.612,282.492 180.637,282.583 179.583 L 282.749 177.667 285.823 177.667 C 288.337 177.667,288.988 177.773,289.398 178.250 M257.119 181.769 C 257.917 184.005,257.727 184.320,255.573 184.328 C 253.916 184.335,253.747 183.789,254.699 181.493 C 255.663 179.168,256.213 179.231,257.119 181.769 M231.685 187.615 C 234.186 189.640,232.158 191.667,227.630 191.667 L 224.333 191.667 224.333 189.333 L 224.333 187.000 227.630 187.000 C 230.337 187.000,231.062 187.110,231.685 187.615 M290.019 187.615 C 292.520 189.640,290.491 191.667,285.963 191.667 L 282.667 191.667 282.667 189.333 L 282.667 187.000 285.963 187.000 C 288.670 187.000,289.395 187.110,290.019 187.615 " stroke="none" fill="#ececec" fill-rule="evenodd"></path><path id="path1" d="M103.482 122.124 C 84.492 128.217,74.090 170.808,82.496 208.047 C 82.957 210.087,83.333 211.797,83.333 211.846 C 83.333 212.022,87.171 210.942,87.429 210.694 C 87.574 210.555,87.395 209.104,87.033 207.471 C 79.525 173.654,87.857 133.664,103.833 126.834 C 116.394 121.464,129.074 145.010,130.534 176.417 L 130.763 181.333 133.088 181.333 L 135.414 181.333 135.184 176.750 C 134.082 154.752,128.679 137.141,120.276 128.158 L 118.338 126.087 119.866 126.372 C 130.791 128.413,139.970 149.942,141.201 176.417 L 141.430 181.333 143.525 181.333 L 145.620 181.333 145.727 169.917 C 145.831 158.703,145.848 158.469,146.631 156.735 C 149.605 150.152,158.724 150.111,161.789 156.667 C 162.453 158.085,162.497 158.796,162.598 169.750 L 162.706 181.333 164.853 181.333 L 167.000 181.333 167.000 169.346 C 167.000 156.326,166.869 155.285,164.921 152.808 L 164.202 151.895 165.184 152.140 C 167.182 152.639,169.307 154.615,170.352 156.944 C 170.957 158.293,171.000 159.229,171.000 171.028 L 171.000 183.667 173.351 183.667 L 175.702 183.667 175.601 170.242 L 175.500 156.817 174.411 154.606 C 173.018 151.778,170.119 149.022,167.428 147.968 C 163.562 146.453,151.841 146.714,148.559 148.388 C 146.983 149.192,143.775 152.134,143.488 153.039 C 143.142 154.129,142.786 153.728,142.346 151.750 C 139.521 139.055,131.862 126.774,124.501 123.134 L 121.871 121.833 113.352 121.762 C 107.106 121.710,104.473 121.806,103.482 122.124 M206.333 185.500 L 206.333 248.667 269.333 248.667 L 332.333 248.667 332.333 185.500 L 332.333 122.333 269.333 122.333 L 206.333 122.333 206.333 185.500 M100.794 147.316 C 95.409 148.602,90.572 155.762,92.796 159.156 L 93.349 160.000 103.615 160.000 C 115.378 160.000,115.919 159.907,118.683 157.422 C 121.944 154.490,123.459 149.267,121.496 147.723 C 120.539 146.970,103.636 146.638,100.794 147.316 M116.847 152.640 C 115.505 155.235,113.468 155.718,104.393 155.596 L 97.287 155.500 98.063 154.333 C 99.662 151.929,100.795 151.667,109.579 151.667 L 117.350 151.667 116.847 152.640 M152.639 162.594 C 149.147 166.025,149.006 168.667,152.315 168.667 C 153.462 168.667,158.667 163.413,158.667 162.255 C 158.667 159.221,155.914 159.375,152.639 162.594 M97.529 168.999 C 92.664 170.552,88.289 178.380,90.943 180.782 C 91.951 181.694,110.925 181.602,113.409 180.672 C 118.228 178.869,122.040 171.676,119.515 169.152 L 118.697 168.333 109.098 168.351 C 100.639 168.367,99.266 168.444,97.529 168.999 M152.606 173.273 C 149.267 176.611,149.103 179.333,152.241 179.333 C 153.459 179.333,158.667 174.137,158.667 172.922 C 158.667 169.864,155.851 170.027,152.606 173.273 M316.312 172.521 C 317.332 172.807,318.838 173.529,319.659 174.125 L 321.150 175.209 321.195 178.521 C 321.246 182.353,321.270 182.321,318.395 182.328 C 315.453 182.335,314.867 181.964,315.139 180.264 C 315.804 176.106,308.336 177.387,306.516 181.744 C 303.889 188.030,310.276 193.274,316.543 189.977 L 318.487 188.955 320.467 191.003 L 322.447 193.051 321.473 193.855 C 314.215 199.845,302.318 196.912,299.818 188.515 C 296.779 178.308,305.792 169.569,316.312 172.521 M234.816 173.333 C 237.525 174.702,238.500 176.235,238.500 179.127 C 238.500 181.505,238.428 181.711,236.844 183.865 C 236.619 184.172,236.738 184.533,237.240 185.068 C 240.013 188.022,239.863 192.295,236.895 194.901 C 234.934 196.623,233.993 196.771,224.069 196.915 L 214.972 197.048 215.069 194.274 L 215.167 191.500 216.333 191.500 L 217.500 191.500 217.600 184.583 L 217.700 177.667 216.350 177.667 L 215.000 177.667 215.000 174.976 L 215.000 172.286 224.083 172.393 C 233.007 172.498,233.196 172.515,234.816 173.333 M260.057 173.250 C 260.263 173.754,261.312 176.065,262.388 178.385 C 263.463 180.705,264.954 184.228,265.700 186.214 C 267.549 191.138,267.859 191.612,269.312 191.734 L 270.500 191.833 270.500 194.333 L 270.500 196.833 264.789 196.924 C 258.357 197.027,258.728 197.193,258.928 194.291 C 259.038 192.695,259.177 192.360,259.862 192.048 C 260.757 191.640,260.812 191.426,260.342 190.188 C 259.931 189.109,251.938 188.812,251.536 189.861 C 251.110 190.969,251.314 192.000,251.959 192.000 C 253.006 192.000,253.375 192.814,253.267 194.889 L 253.167 196.833 247.167 196.833 L 241.167 196.833 241.167 194.333 L 241.167 191.833 242.416 191.730 C 243.806 191.615,243.855 191.533,247.705 182.833 C 249.656 178.423,249.695 178.077,248.250 177.938 L 247.167 177.833 247.067 175.533 C 246.918 172.096,246.442 172.333,253.497 172.333 L 259.681 172.333 260.057 173.250 M293.150 173.333 C 295.858 174.702,296.833 176.235,296.833 179.127 C 296.833 181.505,296.761 181.711,295.178 183.865 C 294.952 184.172,295.071 184.533,295.574 185.068 C 298.347 188.022,298.196 192.295,295.228 194.901 C 293.268 196.623,292.326 196.771,282.403 196.915 L 273.306 197.048 273.403 194.274 L 273.500 191.500 274.667 191.500 L 275.833 191.500 275.933 184.583 L 276.033 177.667 274.683 177.667 L 273.333 177.667 273.333 174.976 L 273.333 172.286 282.417 172.393 C 291.340 172.498,291.529 172.515,293.150 173.333 M115.000 173.474 C 115.000 174.185,112.377 176.290,111.022 176.666 C 109.465 177.099,95.333 177.110,95.333 176.678 C 95.333 176.098,97.303 174.098,98.413 173.551 C 99.942 172.797,115.000 172.727,115.000 173.474 M224.250 179.583 C 224.032 182.094,223.909 182.001,227.436 181.995 C 230.712 181.989,231.024 181.898,231.616 180.774 C 232.665 178.779,231.188 177.667,227.490 177.667 L 224.416 177.667 224.250 179.583 M282.583 179.583 C 282.365 182.094,282.242 182.001,285.770 181.995 C 289.045 181.989,289.357 181.898,289.949 180.774 C 290.999 178.779,289.521 177.667,285.823 177.667 L 282.749 177.667 282.583 179.583 M254.699 181.493 C 253.747 183.789,253.916 184.335,255.573 184.328 C 257.727 184.320,257.917 184.005,257.119 181.769 C 256.213 179.231,255.663 179.168,254.699 181.493 M119.333 185.551 C 100.373 187.357,88.288 200.738,97.529 209.694 C 98.604 210.737,98.667 210.922,98.667 213.065 L 98.667 215.333 93.105 215.333 C 85.109 215.333,82.833 216.711,82.833 221.553 L 82.833 223.665 81.539 223.666 C 78.772 223.668,75.000 225.879,75.000 227.500 C 75.000 227.850,74.647 228.000,73.823 228.000 C 70.855 228.000,69.039 229.507,67.003 233.660 L 65.530 236.667 63.439 236.667 C 60.527 236.667,60.206 237.186,60.398 241.584 C 60.576 245.669,61.282 247.216,63.583 248.569 L 65.167 249.500 121.617 249.587 C 182.083 249.680,179.796 249.744,181.887 247.908 C 184.043 246.015,184.000 246.425,184.000 227.909 L 184.000 211.129 185.489 209.530 C 193.953 200.441,182.722 187.576,164.667 185.678 C 161.828 185.379,122.296 185.269,119.333 185.551 M224.333 189.333 L 224.333 191.667 227.630 191.667 C 231.498 191.667,232.444 191.208,232.444 189.333 C 232.444 187.459,231.498 187.000,227.630 187.000 L 224.333 187.000 224.333 189.333 M282.667 189.333 L 282.667 191.667 285.963 191.667 C 289.831 191.667,290.778 191.208,290.778 189.333 C 290.778 187.459,289.831 187.000,285.963 187.000 L 282.667 187.000 282.667 189.333 M130.500 190.959 C 143.033 194.114,148.883 201.684,142.985 207.116 L 141.333 208.638 141.333 226.152 C 141.333 246.097,141.493 245.000,138.583 245.000 L 137.167 245.001 137.282 241.657 C 137.435 237.197,137.121 236.667,134.329 236.667 L 132.340 236.667 130.869 233.750 C 128.839 229.726,126.784 228.000,124.019 228.000 C 123.252 228.000,122.901 227.775,122.521 227.040 C 121.461 224.992,119.023 223.673,116.289 223.669 L 115.078 223.667 114.942 221.539 C 114.659 217.089,112.335 215.333,106.728 215.333 L 103.333 215.333 103.333 212.130 L 103.333 208.927 101.792 207.407 C 98.017 203.686,98.199 200.737,102.446 196.769 C 108.596 191.023,120.751 188.506,130.500 190.959 M168.833 190.923 C 180.101 193.889,186.545 200.827,182.641 205.790 L 181.952 206.667 172.309 206.667 L 162.667 206.667 162.667 209.000 L 162.667 211.333 171.167 211.333 L 179.667 211.333 179.667 227.500 C 179.667 243.222,179.648 243.685,179.000 244.333 C 178.351 244.982,177.889 245.000,162.000 245.000 L 145.667 245.000 145.667 228.167 L 145.667 211.333 151.000 211.333 L 156.333 211.333 156.333 209.000 L 156.333 206.667 152.798 206.667 C 149.561 206.667,149.282 206.617,149.501 206.083 C 151.536 201.123,148.347 194.908,141.465 190.422 C 140.209 189.602,165.582 190.068,168.833 190.923 M124.333 198.333 L 124.333 200.667 126.667 200.667 L 129.000 200.667 129.000 198.333 L 129.000 196.000 126.667 196.000 L 124.333 196.000 124.333 198.333 M107.333 204.667 L 107.333 207.000 109.500 207.000 L 111.667 207.000 111.667 204.667 L 111.667 202.333 109.500 202.333 L 107.333 202.333 107.333 204.667 M126.333 217.500 L 126.333 219.667 128.667 219.667 L 131.000 219.667 131.000 217.500 L 131.000 215.333 128.667 215.333 L 126.333 215.333 126.333 217.500 M109.348 220.008 C 110.731 220.748,110.720 221.275,109.161 229.029 C 108.339 233.115,107.667 236.505,107.667 236.562 C 107.667 236.620,103.713 236.667,98.882 236.667 L 90.097 236.667 88.677 229.583 C 87.029 221.357,87.008 221.070,87.995 220.270 C 88.864 219.567,108.082 219.330,109.348 220.008 M84.598 232.106 C 85.571 237.098,85.683 236.715,83.285 236.599 L 81.237 236.500 80.131 233.667 C 78.408 229.250,78.726 228.333,81.983 228.333 L 83.863 228.333 84.598 232.106 M118.057 228.885 C 118.908 229.655,118.827 230.459,117.571 233.686 L 116.476 236.500 114.405 236.599 C 113.265 236.654,112.333 236.562,112.333 236.396 C 112.333 236.017,113.655 229.317,113.842 228.750 C 114.054 228.107,117.312 228.211,118.057 228.885 M75.517 234.407 C 75.875 235.365,76.217 236.265,76.278 236.407 C 76.339 236.550,75.101 236.667,73.528 236.667 C 71.954 236.667,70.667 236.586,70.667 236.487 C 70.667 236.094,72.010 233.705,72.513 233.201 C 73.665 232.049,74.809 232.508,75.517 234.407 M124.822 232.875 C 125.275 233.049,127.000 235.911,127.000 236.489 C 127.000 236.587,125.735 236.667,124.189 236.667 L 121.379 236.667 122.106 234.667 C 122.852 232.617,123.329 232.302,124.822 232.875 M132.667 242.390 C 132.667 245.240,135.770 245.000,98.891 245.000 C 62.087 245.000,65.000 245.219,65.000 242.448 L 65.000 241.000 98.833 241.000 L 132.667 241.000 132.667 242.390 M58.667 269.333 C 58.667 270.000,58.833 270.333,59.167 270.333 C 59.574 270.333,59.667 270.889,59.667 273.333 C 59.667 275.778,59.574 276.333,59.167 276.333 C 58.830 276.333,58.667 276.670,58.667 277.368 L 58.667 278.402 62.862 278.284 C 68.270 278.133,70.233 276.326,67.855 273.689 C 67.449 273.239,67.450 273.077,67.859 272.520 C 69.709 269.997,67.569 268.333,62.474 268.333 L 58.667 268.333 58.667 269.333 M74.333 269.500 C 74.333 270.315,74.484 270.667,74.833 270.667 C 75.236 270.667,75.333 271.185,75.333 273.333 C 75.333 275.481,75.236 276.000,74.833 276.000 C 74.484 276.000,74.333 276.352,74.333 277.167 L 74.333 278.333 76.833 278.333 L 79.333 278.333 79.333 277.333 C 79.333 276.667,79.167 276.333,78.833 276.333 C 78.556 276.333,78.333 276.037,78.333 275.667 C 78.333 275.300,78.548 275.000,78.811 275.000 C 79.549 275.000,80.662 276.779,80.444 277.611 C 80.266 278.293,80.368 278.333,82.288 278.333 C 84.166 278.333,84.336 278.271,84.525 277.519 C 84.772 276.536,84.491 276.000,83.727 276.000 C 82.573 276.000,82.254 274.776,83.171 273.860 C 85.984 271.046,83.356 268.333,77.818 268.333 L 74.333 268.333 74.333 269.500 M90.000 269.500 C 90.000 270.315,90.151 270.667,90.500 270.667 C 90.903 270.667,91.000 271.185,91.000 273.333 C 91.000 275.481,90.903 276.000,90.500 276.000 C 90.151 276.000,90.000 276.352,90.000 277.167 L 90.000 278.333 94.333 278.333 L 98.667 278.333 98.667 277.000 C 98.667 276.267,98.704 275.554,98.750 275.417 C 98.796 275.279,98.346 275.120,97.750 275.062 C 96.930 274.983,96.667 275.089,96.667 275.498 C 96.667 276.286,93.884 276.071,93.733 275.271 C 93.650 274.837,93.915 274.686,94.896 274.605 C 96.862 274.443,97.040 272.431,95.103 272.271 C 93.266 272.120,93.250 270.882,95.083 270.730 C 96.038 270.651,96.333 270.749,96.333 271.147 C 96.333 271.519,96.665 271.667,97.500 271.667 L 98.667 271.667 98.667 270.000 L 98.667 268.333 94.333 268.333 L 90.000 268.333 90.000 269.500 M106.902 268.543 C 106.452 268.993,106.671 270.302,107.250 270.627 C 107.966 271.028,105.732 276.000,104.836 276.000 C 104.484 276.000,104.333 276.349,104.333 277.167 L 104.333 278.333 106.833 278.333 L 109.333 278.333 109.333 277.353 C 109.333 276.814,109.183 276.280,109.000 276.167 C 108.197 275.670,108.803 275.333,110.500 275.333 C 111.907 275.333,112.333 275.449,112.333 275.833 C 112.333 276.108,112.183 276.333,112.000 276.333 C 111.817 276.333,111.667 276.790,111.667 277.348 L 111.667 278.363 114.083 278.265 L 116.500 278.167 116.604 277.083 C 116.689 276.209,116.588 276.000,116.084 276.000 C 115.612 276.000,115.042 275.085,113.747 272.250 L 112.036 268.500 109.586 268.404 C 108.239 268.351,107.031 268.414,106.902 268.543 M122.000 269.500 C 122.000 270.315,122.151 270.667,122.500 270.667 C 122.903 270.667,123.000 271.185,123.000 273.333 C 123.000 275.481,122.903 276.000,122.500 276.000 C 122.151 276.000,122.000 276.352,122.000 277.167 L 122.000 278.333 125.177 278.333 C 130.306 278.333,132.040 277.166,132.269 273.556 C 132.508 269.810,130.502 268.333,125.177 268.333 L 122.000 268.333 122.000 269.500 M151.568 268.543 C 151.118 268.993,151.337 270.302,151.917 270.627 C 152.632 271.028,150.398 276.000,149.503 276.000 C 149.150 276.000,149.000 276.349,149.000 277.167 L 149.000 278.333 151.500 278.333 L 154.000 278.333 154.000 277.353 C 154.000 276.814,153.850 276.280,153.667 276.167 C 152.863 275.670,153.470 275.333,155.167 275.333 C 156.574 275.333,157.000 275.449,157.000 275.833 C 157.000 276.108,156.850 276.333,156.667 276.333 C 156.483 276.333,156.333 276.790,156.333 277.348 L 156.333 278.363 158.750 278.265 L 161.167 278.167 161.271 277.083 C 161.355 276.209,161.255 276.000,160.751 276.000 C 160.278 276.000,159.708 275.085,158.414 272.250 L 156.702 268.500 154.253 268.404 C 152.906 268.351,151.698 268.414,151.568 268.543 M166.667 269.500 C 166.667 270.315,166.817 270.667,167.167 270.667 C 167.569 270.667,167.667 271.185,167.667 273.333 C 167.667 275.481,167.569 276.000,167.167 276.000 C 166.817 276.000,166.667 276.352,166.667 277.167 L 166.667 278.333 169.167 278.333 L 171.667 278.333 171.667 277.167 C 171.667 276.352,171.516 276.000,171.167 276.000 C 170.806 276.000,170.667 275.630,170.667 274.667 C 170.667 272.935,170.638 272.919,172.717 275.828 C 174.389 278.167,174.578 278.323,175.750 278.328 L 177.000 278.333 177.000 274.500 C 177.000 271.315,177.085 270.667,177.500 270.667 C 178.033 270.667,178.056 270.619,178.123 269.333 C 178.165 268.525,178.093 268.497,175.750 268.402 L 173.333 268.304 173.333 269.485 C 173.333 270.313,173.483 270.667,173.833 270.667 C 174.201 270.667,174.330 271.041,174.321 272.083 L 174.308 273.500 173.133 272.167 C 172.486 271.433,171.572 270.271,171.101 269.583 C 170.291 268.401,170.149 268.333,168.456 268.333 L 166.667 268.333 166.667 269.500 M184.000 269.500 C 184.000 270.315,184.151 270.667,184.500 270.667 C 184.903 270.667,185.000 271.185,185.000 273.333 C 185.000 275.481,184.903 276.000,184.500 276.000 C 184.151 276.000,184.000 276.352,184.000 277.167 L 184.000 278.333 187.177 278.333 C 192.306 278.333,194.040 277.166,194.269 273.556 C 194.508 269.810,192.502 268.333,187.177 268.333 L 184.000 268.333 184.000 269.500 M210.333 269.333 C 210.333 270.000,210.500 270.333,210.833 270.333 C 211.241 270.333,211.333 270.889,211.333 273.333 C 211.333 275.778,211.241 276.333,210.833 276.333 C 210.496 276.333,210.333 276.670,210.333 277.368 L 210.333 278.402 214.529 278.284 C 219.936 278.133,221.899 276.326,219.521 273.689 C 219.116 273.239,219.117 273.077,219.525 272.520 C 221.375 269.997,219.235 268.333,214.141 268.333 L 210.333 268.333 210.333 269.333 M225.833 268.750 C 225.556 269.544,225.836 270.501,226.417 270.739 C 226.891 270.934,227.001 271.402,227.005 273.239 C 227.013 276.857,228.557 278.668,231.633 278.665 C 234.794 278.663,236.333 276.756,236.333 272.844 C 236.333 271.131,236.440 270.667,236.833 270.667 C 237.183 270.667,237.333 270.315,237.333 269.500 L 237.333 268.333 234.833 268.333 L 232.333 268.333 232.333 269.500 C 232.333 270.464,232.455 270.667,233.036 270.667 C 233.539 270.667,233.681 270.816,233.536 271.194 C 233.424 271.484,233.333 272.523,233.333 273.503 C 233.333 276.148,231.870 277.203,230.333 275.667 C 229.803 275.137,229.667 274.556,229.667 272.833 C 229.667 270.889,229.735 270.667,230.333 270.667 C 230.873 270.667,231.000 270.444,231.000 269.500 L 231.000 268.333 228.490 268.333 C 226.781 268.333,225.933 268.466,225.833 268.750 M242.903 268.772 C 242.324 270.281,243.077 272.333,244.210 272.333 C 245.196 272.333,245.333 272.228,245.333 271.472 C 245.333 270.933,245.489 270.662,245.750 270.748 C 246.647 271.042,246.391 276.000,245.480 276.000 C 245.154 276.000,245.000 276.374,245.000 277.167 L 245.000 278.333 247.500 278.333 L 250.000 278.333 250.000 277.167 C 250.000 276.352,249.849 276.000,249.500 276.000 C 249.097 276.000,249.000 275.478,249.000 273.306 C 249.000 270.727,249.640 269.572,249.940 271.609 C 250.025 272.191,250.271 272.333,251.190 272.333 L 252.333 272.333 252.333 270.333 L 252.333 268.333 247.702 268.333 C 244.182 268.333,243.031 268.438,242.903 268.772 M258.236 268.772 C 257.657 270.281,258.411 272.333,259.543 272.333 C 260.529 272.333,260.667 272.228,260.667 271.472 C 260.667 270.933,260.822 270.662,261.083 270.748 C 261.980 271.042,261.725 276.000,260.813 276.000 C 260.487 276.000,260.333 276.374,260.333 277.167 L 260.333 278.333 262.833 278.333 L 265.333 278.333 265.333 277.167 C 265.333 276.352,265.183 276.000,264.833 276.000 C 264.430 276.000,264.333 275.478,264.333 273.306 C 264.333 270.727,264.973 269.572,265.273 271.609 C 265.359 272.191,265.604 272.333,266.523 272.333 L 267.667 272.333 267.667 270.333 L 267.667 268.333 263.036 268.333 C 259.515 268.333,258.364 268.438,258.236 268.772 M273.333 269.500 C 273.333 270.315,273.484 270.667,273.833 270.667 C 274.236 270.667,274.333 271.185,274.333 273.333 C 274.333 275.481,274.236 276.000,273.833 276.000 C 273.484 276.000,273.333 276.352,273.333 277.167 L 273.333 278.333 277.667 278.333 L 282.000 278.333 282.000 277.000 C 282.000 276.267,282.037 275.554,282.083 275.417 C 282.129 275.279,281.679 275.120,281.083 275.062 C 280.264 274.983,280.000 275.089,280.000 275.498 C 280.000 276.286,277.218 276.071,277.066 275.271 C 276.984 274.837,277.249 274.686,278.230 274.605 C 280.196 274.443,280.374 272.431,278.436 272.271 C 276.599 272.120,276.584 270.882,278.417 270.730 C 279.371 270.651,279.667 270.749,279.667 271.147 C 279.667 271.519,279.998 271.667,280.833 271.667 L 282.000 271.667 282.000 270.000 L 282.000 268.333 277.667 268.333 L 273.333 268.333 273.333 269.500 M288.000 269.500 C 288.000 270.315,288.151 270.667,288.500 270.667 C 288.903 270.667,289.000 271.185,289.000 273.333 C 289.000 275.481,288.903 276.000,288.500 276.000 C 288.151 276.000,288.000 276.352,288.000 277.167 L 288.000 278.333 290.500 278.333 L 293.000 278.333 293.000 277.333 C 293.000 276.667,292.833 276.333,292.500 276.333 C 292.222 276.333,292.000 276.037,292.000 275.667 C 292.000 275.300,292.215 275.000,292.477 275.000 C 293.216 275.000,294.329 276.779,294.111 277.611 C 293.933 278.293,294.034 278.333,295.955 278.333 C 297.832 278.333,298.003 278.271,298.192 277.519 C 298.439 276.536,298.157 276.000,297.394 276.000 C 296.239 276.000,295.921 274.776,296.837 273.860 C 299.651 271.046,297.023 268.333,291.484 268.333 L 288.000 268.333 288.000 269.500 M318.150 268.802 C 316.794 269.393,315.409 271.091,315.148 272.484 C 314.294 277.037,319.487 280.249,323.690 277.767 L 324.658 277.194 323.804 276.302 C 322.994 275.457,322.898 275.436,321.971 275.898 C 319.971 276.895,317.933 275.659,317.933 273.448 C 317.933 271.055,321.344 269.478,321.605 271.750 C 321.698 272.552,321.855 272.667,322.855 272.667 L 324.000 272.667 324.000 271.038 C 324.000 268.634,321.090 267.522,318.150 268.802 M333.470 268.692 C 329.939 269.717,328.920 274.332,331.627 277.039 C 334.384 279.796,339.548 278.890,340.683 275.450 C 342.201 270.852,338.376 267.268,333.470 268.692 M65.333 270.833 C 65.982 271.614,65.163 272.333,63.626 272.333 C 62.412 272.333,62.333 272.273,62.333 271.333 C 62.333 270.184,64.495 269.823,65.333 270.833 M217.000 270.833 C 217.648 271.614,216.830 272.333,215.293 272.333 C 214.079 272.333,214.000 272.273,214.000 271.333 C 214.000 270.184,216.162 269.823,217.000 270.833 M80.987 271.151 C 81.757 272.078,81.088 273.000,79.644 273.000 C 78.368 273.000,78.333 272.969,78.333 271.833 C 78.333 270.540,80.102 270.085,80.987 271.151 M128.976 271.545 C 130.475 273.451,129.244 276.000,126.826 276.000 L 125.621 276.000 125.712 273.333 L 125.803 270.667 127.044 270.667 C 127.988 270.667,128.450 270.877,128.976 271.545 M190.976 271.545 C 192.475 273.451,191.244 276.000,188.826 276.000 L 187.621 276.000 187.712 273.333 L 187.803 270.667 189.044 270.667 C 189.988 270.667,190.450 270.877,190.976 271.545 M294.653 271.151 C 295.423 272.078,294.754 273.000,293.311 273.000 C 292.035 273.000,292.000 272.969,292.000 271.833 C 292.000 270.540,293.769 270.085,294.653 271.151 M337.342 271.509 C 339.803 274.128,336.266 277.853,333.605 275.444 C 332.793 274.710,332.780 272.295,333.583 271.595 C 334.912 270.437,336.305 270.406,337.342 271.509 M111.118 273.079 C 110.878 273.467,109.667 273.382,109.667 272.978 C 109.667 271.807,110.408 271.206,110.846 272.023 C 111.082 272.464,111.204 272.939,111.118 273.079 M155.784 273.079 C 155.545 273.467,154.333 273.382,154.333 272.978 C 154.333 271.807,155.075 271.206,155.512 272.023 C 155.748 272.464,155.871 272.939,155.784 273.079 M65.500 275.333 C 65.500 276.091,65.356 276.176,63.917 276.268 C 62.345 276.369,62.333 276.362,62.333 275.333 C 62.333 274.305,62.345 274.298,63.917 274.398 C 65.356 274.491,65.500 274.576,65.500 275.333 M217.167 275.333 C 217.167 276.091,217.023 276.176,215.583 276.268 C 214.012 276.369,214.000 276.362,214.000 275.333 C 214.000 274.305,214.012 274.298,215.583 274.398 C 217.023 274.491,217.167 274.576,217.167 275.333 " stroke="none" fill="#5c4ce4" fill-rule="evenodd"></path><path id="path2" d="" stroke="none" fill="#f0c8e8" fill-rule="evenodd"></path><path id="path3" d="" stroke="none" fill="#a874e8" fill-rule="evenodd"></path><path id="path4" d="" stroke="none" fill="#5c78e8" fill-rule="evenodd"></path></g></svg>